<?xml version="1.0" encoding="UTF-8" standalone="no"?>
<!-- Created with Inkscape (http://www.inkscape.org/) -->

<svg
   xmlns:dc="http://purl.org/dc/elements/1.1/"
   xmlns:cc="http://creativecommons.org/ns#"
   xmlns:rdf="http://www.w3.org/1999/02/22-rdf-syntax-ns#"
   xmlns:svg="http://www.w3.org/2000/svg"
   xmlns="http://www.w3.org/2000/svg"
   xmlns:sodipodi="http://sodipodi.sourceforge.net/DTD/sodipodi-0.dtd"
   xmlns:inkscape="http://www.inkscape.org/namespaces/inkscape"
   width="72.54071mm"
   height="118.93385mm"
   viewBox="0 0 72.54071 118.93385"
   version="1.1"
   id="svg2024"
   inkscape:version="0.92.3 (unknown)"
   sodipodi:docname="lotr.svg">
  <defs
     id="defs2018" />
  <sodipodi:namedview
     id="base"
     pagecolor="#ffffff"
     bordercolor="#666666"
     borderopacity="1.0"
     inkscape:pageopacity="0.0"
     inkscape:pageshadow="2"
     inkscape:zoom="1.1005859"
     inkscape:cx="-191.70406"
     inkscape:cy="389.63479"
     inkscape:document-units="mm"
     inkscape:current-layer="layer1"
     showgrid="false"
     fit-margin-top="0"
     fit-margin-left="0"
     fit-margin-right="0"
     fit-margin-bottom="0"
     inkscape:window-width="1920"
     inkscape:window-height="1023"
     inkscape:window-x="0"
     inkscape:window-y="27"
     inkscape:window-maximized="1" />
  <metadata
     id="metadata2021">
    <rdf:RDF>
      <cc:Work
         rdf:about="">
        <dc:format>image/svg+xml</dc:format>
        <dc:type
           rdf:resource="http://purl.org/dc/dcmitype/StillImage" />
        <dc:title></dc:title>
      </cc:Work>
    </rdf:RDF>
  </metadata>
  <g
     inkscape:label="Layer 1"
     inkscape:groupmode="layer"
     id="layer1"
     transform="translate(-115.68665,-132.99035)">
    <path
       style="fill:#000000;stroke-width:0.26458335"
       d="m 136.49364,251.52269 c -1.14881,-0.56611 -2.16444,-1.92172 -2.1632,-2.8873 10e-4,-1.02644 0.85205,-2.36882 1.81768,-2.86817 0.69104,-0.35734 0.89245,-0.35987 1.70264,-0.0214 1.43345,0.59893 2.51945,1.83801 2.61456,2.9831 0.12345,1.48638 0.8113,1.44359 2.30102,-0.14316 2.0838,-2.21953 3.14039,-5.01771 3.71832,-9.84732 0.4517,-3.77477 0.84896,-23.37601 0.681,-33.60209 -0.16883,-10.27957 -0.24085,-11.37708 -0.74662,-11.37708 -0.37869,0 -2.25712,2.53424 -3.97035,5.3565 -2.19679,3.61885 -4.96555,7.58876 -6.34652,9.09975 -1.2038,1.31715 -5.08617,4.43699 -7.14759,5.74375 -0.7684,0.4871 -2.11946,0.41135 -2.45888,-0.13786 -0.14893,-0.24096 -3.24508,-1.76037 -4.38337,-2.15109 -1.6608,-0.57008 -4.45163,-1.86201 -4.45163,-2.06074 0,-0.13234 1.74979,-0.2428 3.9026,-0.24636 2.14644,-0.004 4.41037,-0.12362 5.03096,-0.26679 2.01671,-0.46527 5.09207,-2.37645 7.22384,-4.48925 3.48566,-3.45464 10.56552,-11.98711 10.56552,-12.7333 0,-0.36619 -0.34461,-0.48813 -1.78594,-0.63193 -6.66379,-0.66485 -8.95525,-1.93268 -11.30881,-6.25694 -1.25145,-2.29933 -1.48362,-7.5203 -0.47459,-10.67262 0.31818,-0.99403 0.85711,-1.75047 2.16775,-3.04271 1.47268,-1.45199 2.07147,-1.83861 3.84539,-2.48284 1.91631,-0.69595 2.44638,-0.76839 6.02714,-0.82367 2.15932,-0.0333 4.01134,-0.1459 4.11558,-0.25015 0.10424,-0.10424 0.19,-1.01764 0.19057,-2.02978 7.9e-4,-1.34853 -0.10501,-1.90741 -0.39584,-2.0916 -0.22236,-0.14083 -3.18911,-0.25086 -6.74688,-0.25024 -6.65632,0.001 -11.37107,0.42578 -12.77206,1.15026 -1.01568,0.52523 -3.15893,2.23173 -5.13048,4.08498 -2.37877,2.23606 -3.71063,3.02036 -5.32822,3.13766 -1.1885,0.0862 -1.30591,0.0538 -0.86369,-0.23858 1.26394,-0.83554 3.00715,-2.6213 4.44715,-4.55571 1.93323,-2.59699 2.46855,-3.61121 3.49967,-6.63054 0.44726,-1.30968 0.9297,-2.35453 1.07209,-2.32187 0.14238,0.0327 1.15184,0.35161 2.24325,0.70879 4.21154,1.37831 6.63621,1.76496 12.56676,2.00394 3.11959,0.12571 5.78607,0.29906 5.9255,0.38523 0.13943,0.0862 0.57644,0.01 0.97113,-0.17029 l 0.71763,-0.32698 -0.14338,-3.84357 c -0.0789,-2.11397 -0.2205,-4.03499 -0.31478,-4.26894 -0.14614,-0.36265 0.0744,-0.42862 1.4961,-0.44744 1.5932,-0.0211 1.70591,-0.067 2.52956,-1.02985 0.47413,-0.55427 1.23463,-1.66261 1.68999,-2.46298 0.45536,-0.80036 1.07947,-1.76668 1.3869,-2.14736 0.30743,-0.38069 0.70622,-0.91647 0.8862,-1.19063 0.38263,-0.58287 0.25057,2.67852 -0.31732,7.83591 -0.18426,1.67349 -0.27672,4.01853 -0.20545,5.2112 0.1282,2.14555 0.13832,2.17162 0.9563,2.46438 1.04849,0.37525 12.33044,0.35702 15.6434,-0.0253 1.30968,-0.15114 3.21468,-0.57644 4.23333,-0.94513 2.86754,-1.03785 2.73559,-1.02949 2.9102,-0.18445 0.27098,1.31142 1.74093,4.9145 2.82406,6.92221 1.92971,3.57696 3.37178,5.54071 5.56522,7.57846 1.19979,1.11463 1.9462,1.93973 1.65869,1.83356 -1.28591,-0.47486 -8.09497,-5.48344 -12.25893,-9.01737 -2.40752,-2.04325 -4.58853,-2.61659 -12.34091,-3.24419 -1.89177,-0.15315 -4.58199,-0.2776 -5.97826,-0.27655 -2.19917,0.002 -2.60256,0.0725 -3.01641,0.52981 -0.44856,0.49564 -1.0944,3.36184 -0.81948,3.63676 0.0693,0.0693 1.49407,0.10851 3.16615,0.0871 2.80127,-0.0358 3.20354,0.0241 5.12,0.76318 5.19534,2.00354 8.01441,4.99905 8.52975,9.06365 0.35032,2.76307 -0.012,5.79799 -0.91865,7.69571 -2.03819,4.26597 -5.67518,6.2584 -11.44091,6.26762 -2.32564,0.004 -2.44739,0.0322 -2.44739,0.57197 0,0.96569 4.06318,5.58056 10.48481,11.90841 6.67648,6.57899 8.80666,8.10726 13.37699,9.59723 1.05408,0.34363 1.96038,0.75638 2.01399,0.91721 0.13312,0.39936 -4.83011,0.38946 -6.49127,-0.0129 -2.92484,-0.70853 -5.04238,-1.38151 -6.21712,-1.97587 -1.33844,-0.67718 -3.13321,-2.70656 -3.79549,-4.29164 -0.51589,-1.2347 -1.83709,-3.21636 -4.61424,-6.92087 -1.25456,-1.67349 -3.08527,-4.20357 -4.06824,-5.6224 -0.98298,-1.41882 -1.94237,-2.57968 -2.13198,-2.57968 -0.94257,0 -0.96879,0.4601 -0.86942,15.25761 0.0953,14.19982 0.10986,14.54169 0.68332,16.09344 1.28587,3.47951 5.50638,6.43751 9.28344,6.50642 l 1.20875,0.022 -1.38337,0.65432 c -1.67317,0.7914 -4.4564,1.07333 -6.15725,0.62371 -0.65485,-0.17311 -1.87768,-0.44541 -2.71741,-0.60512 -1.32163,-0.25137 -1.58573,-0.23144 -1.96549,0.14832 -0.24129,0.24129 -1.00078,2.08006 -1.68775,4.08616 -2.20129,6.42826 -3.81138,10.03267 -5.44259,12.18403 -1.19156,1.57152 -3.37593,2.99217 -5.42981,3.5314 -2.28293,0.59937 -2.24311,0.59872 -3.34693,0.0548 z m 24.86174,-61.50633 c 0.96142,-0.36682 2.2318,-2.02015 2.85156,-3.71114 0.90456,-2.46809 1.16844,-4.54898 0.99542,-7.84976 -0.36479,-6.95923 -1.83745,-8.91908 -6.9412,-9.23749 -3.15868,-0.19707 -4.04201,0.0251 -4.50492,1.13298 -0.53599,1.2828 -0.55005,16.40141 -0.0164,17.66218 0.75961,1.79469 2.54697,2.62348 5.19589,2.40932 0.94588,-0.0765 2.03474,-0.25922 2.41968,-0.40609 z m -15.45774,-0.74329 c 0.30551,-0.28463 0.62449,-0.85018 0.70884,-1.25678 0.59774,-2.88129 0.94614,-13.32789 0.52265,-15.67134 -0.28581,-1.58157 -0.8166,-2.35205 -1.80913,-2.6261 -1.40455,-0.38781 -4.7704,0.11204 -6.48957,0.96375 -1.36442,0.67596 -1.48697,0.81844 -2.02862,2.35839 -1.11294,3.16415 -1.48633,9.1691 -0.72877,11.72011 0.91021,3.065 1.7048,3.69747 5.66474,4.50895 2.99157,0.61304 3.50467,0.61341 4.15986,0.003 z m -11.02638,39.557 c -0.72739,-0.77427 -0.55859,-1.46867 0.35703,-1.46867 0.62109,0 1.48241,0.60207 1.48241,1.03623 0,0.21768 -0.87773,1.08044 -1.09919,1.08044 -0.0723,0 -0.40543,-0.2916 -0.74025,-0.648 z m -1.94715,-2.20731 c -0.593,-0.65526 -0.56367,-1.04067 0.0951,-1.24976 0.69405,-0.22029 1.35861,0.32776 1.25685,1.0365 -0.10387,0.72344 -0.79203,0.83198 -1.35196,0.21326 z m 4.20236,0.0583 c -0.51767,-0.51767 -0.52219,-0.75403 -0.0223,-1.16887 0.53999,-0.44815 1.72323,-0.11963 1.72323,0.47844 0,1.01106 -0.98175,1.40958 -1.70089,0.69043 z m -1.93712,-2.1407 c -0.44947,-0.18136 -0.41786,-1.01059 0.0534,-1.40172 0.5196,-0.43123 1.30878,-0.24462 1.42058,0.33593 0.16705,0.86745 -0.5968,1.41975 -1.47402,1.06579 z m 28.83407,-67.86789 c -0.483,-0.48299 -0.39533,-1.13226 0.22918,-1.69743 0.54649,-0.49457 0.5617,-0.49272 1.06537,0.12928 0.44983,0.55552 0.46677,0.69771 0.14159,1.18833 -0.44645,0.6736 -0.99681,0.81915 -1.43614,0.37982 z m -2.00401,-3.34907 c -0.57413,-0.63441 -0.55245,-0.91796 0.11652,-1.52336 0.54637,-0.49446 0.56171,-0.49271 1.05834,0.12059 0.61167,0.75538 0.62252,0.93648 0.0881,1.47085 -0.53376,0.53376 -0.72782,0.5233 -1.26301,-0.0681 z m 4.12651,0.17991 c -0.44205,-0.44205 0.31737,-1.81273 1.00433,-1.81273 0.71842,0 1.24995,1.15508 0.78778,1.71196 -0.39619,0.47738 -1.36123,0.53165 -1.79211,0.10077 z m -2.117,-2.9294 c -0.75163,-0.3625 -0.74561,-0.53329 0.0511,-1.44826 l 0.64641,-0.74236 0.7266,0.71757 c 0.71048,0.70164 0.71578,0.72952 0.23863,1.25677 -0.54393,0.60103 -0.79678,0.63392 -1.66274,0.21628 z m -15.22435,-6.40123 c -0.99342,-3.72819 -0.29612,-5.61146 2.36688,-6.39249 1.73326,-0.50835 4.99788,-2.7884 5.70256,-3.98275 0.29688,-0.50318 0.59153,-0.86312 0.65478,-0.79988 0.2831,0.28311 -0.79871,2.15172 -1.97774,3.41614 -2.7177,2.91454 -4.75029,5.88854 -5.51339,8.06699 -0.26762,0.76398 -0.5528,1.38906 -0.63373,1.38906 -0.0809,0 -0.35064,-0.76368 -0.59936,-1.69707 z"
       id="path2580"
       inkscape:connector-curvature="0" />
  </g>
</svg>
