<?xml version="1.0" encoding="UTF-8" standalone="no"?>
<!-- Created with Inkscape (http://www.inkscape.org/) -->

<svg
   xmlns:dc="http://purl.org/dc/elements/1.1/"
   xmlns:cc="http://creativecommons.org/ns#"
   xmlns:rdf="http://www.w3.org/1999/02/22-rdf-syntax-ns#"
   xmlns:svg="http://www.w3.org/2000/svg"
   xmlns="http://www.w3.org/2000/svg"
   xmlns:sodipodi="http://sodipodi.sourceforge.net/DTD/sodipodi-0.dtd"
   xmlns:inkscape="http://www.inkscape.org/namespaces/inkscape"
   width="72.296104mm"
   height="78.706383mm"
   viewBox="0 0 72.296104 78.706383"
   version="1.1"
   id="svg847"
   inkscape:version="0.92.3 (unknown)"
   sodipodi:docname="potter.svg">
  <defs
     id="defs841" />
  <sodipodi:namedview
     id="base"
     pagecolor="#ffffff"
     bordercolor="#666666"
     borderopacity="1.0"
     inkscape:pageopacity="0.0"
     inkscape:pageshadow="2"
     inkscape:zoom="0.77823178"
     inkscape:cx="-260.32413"
     inkscape:cy="339.50022"
     inkscape:document-units="mm"
     inkscape:current-layer="layer1"
     showgrid="false"
     fit-margin-top="0"
     fit-margin-left="0"
     fit-margin-right="0"
     fit-margin-bottom="0"
     inkscape:window-width="1920"
     inkscape:window-height="1023"
     inkscape:window-x="0"
     inkscape:window-y="27"
     inkscape:window-maximized="1" />
  <metadata
     id="metadata844">
    <rdf:RDF>
      <cc:Work
         rdf:about="">
        <dc:format>image/svg+xml</dc:format>
        <dc:type
           rdf:resource="http://purl.org/dc/dcmitype/StillImage" />
        <dc:title></dc:title>
      </cc:Work>
    </rdf:RDF>
  </metadata>
  <g
     inkscape:label="Layer 1"
     inkscape:groupmode="layer"
     id="layer1"
     transform="translate(-96.203877,-179.2879)">
    <path
       style="fill:#000000;stroke-width:0.26458335"
       d="m 145.1264,257.76301 c -0.095,-0.3638 -0.35743,-1.91876 -0.58315,-3.45546 -0.22572,-1.53671 -0.53548,-3.44171 -0.68835,-4.23334 -0.15287,-0.79163 -0.3814,-2.21323 -0.50785,-3.15912 -0.25086,-1.87651 -2.09564,-12.94051 -2.9337,-17.59479 -0.28823,-1.60073 -0.52297,-3.20359 -0.52163,-3.56193 0.002,-0.60645 0.0957,-0.56069 1.35159,0.66146 l 1.34917,1.31297 -0.14751,-1.05833 c -0.0811,-0.58208 -0.21669,-1.71318 -0.30124,-2.51354 -0.2399,-2.27085 -1.16365,-8.54618 -1.7624,-11.9724 l -0.54328,-3.10885 -1.22872,0.0157 c -0.6758,0.009 -1.9431,0.27702 -2.81623,0.59636 l -1.5875,0.58064 -0.0759,13.09582 c -0.0452,7.80261 0.0325,13.92333 0.19234,15.14312 0.31977,2.4409 1.26793,4.47155 2.40016,5.14038 0.76721,0.4532 0.99643,1.35727 0.30711,1.21125 -1.88136,-0.39853 -9.9594,-0.88341 -12.39403,-0.74394 -2.87681,0.16479 -2.9606,0.1539 -3.13899,-0.40816 -0.13244,-0.4173 -0.0465,-0.65236 0.30987,-0.84745 1.22064,-0.66825 2.44286,-2.23077 2.84183,-3.63308 0.65682,-2.30861 1.04193,-9.7526 0.83718,-16.18262 -0.10058,-3.15888 -0.26324,-6.04101 -0.36145,-6.40474 l -0.17857,-0.66131 -1.28109,0.79796 c -1.41102,0.87889 -4.75197,2.17461 -6.3681,2.46975 l -1.03461,0.18894 0.16874,9.2345 c 0.11904,6.51413 0.26326,9.38584 0.48956,9.74821 0.17645,0.28254 0.77125,0.79124 1.32177,1.13045 1.02589,0.6321 1.40628,1.43688 0.55217,1.1682 -1.4772,-0.46468 -3.81568,-0.66443 -9.77617,-0.83507 -5.15725,-0.14764 -6.69781,-0.27035 -6.80197,-0.54178 -0.0822,-0.21409 0.23808,-0.52777 0.82134,-0.80455 0.5258,-0.24951 1.39898,-0.87781 1.94041,-1.39623 1.3973,-1.3379 1.57941,-2.52466 1.57941,-10.29263 v -6.54588 l -3.22428,-1.55767 c -3.740436,-1.80702 -4.924907,-2.8719 -6.413691,-5.76609 -1.1553,-2.2459 -1.115663,-2.31603 1.665628,-2.94716 4.614763,-1.04718 5.125013,-0.80333 2.006053,0.95868 -2.27425,1.28479 -2.400181,1.40467 -1.940973,1.84758 1.359903,1.31163 6.934773,4.30351 7.566893,4.06094 0.33058,-0.12685 0.37123,-0.58397 0.24271,-2.72948 -0.0849,-1.41741 -0.28514,-7.16102 -0.44498,-12.76357 -0.2164,-7.58479 -0.38467,-10.40362 -0.65887,-11.03673 -0.20254,-0.46765 -0.8533,-1.17126 -1.44614,-1.56359 -0.59284,-0.39232 -0.98378,-0.80107 -0.86877,-0.90834 0.11502,-0.10727 3.39405,-0.24335 7.28673,-0.3024 7.71277,-0.11699 7.74157,-0.11107 6.41626,1.31822 -0.36375,0.39228 -0.73967,1.13071 -0.83539,1.64095 -0.19406,1.03441 0.0814,18.93953 0.3471,22.5597 0.12131,1.65303 0.26959,2.31511 0.5185,2.31511 0.64973,0 2.34107,-0.9056 5.32749,-2.85249 l 2.97656,-1.94047 -10e-4,-6.40092 c -0.001,-6.00188 -0.31496,-13.46072 -0.69189,-16.44554 -0.12322,-0.97573 -0.36153,-1.49616 -0.92699,-2.02438 -0.41863,-0.39106 -0.76085,-0.81207 -0.76049,-0.93559 2.6e-4,-0.12351 3.08754,-0.22457 6.86039,-0.22457 6.11219,0 6.8202,0.0437 6.49677,0.401 -0.19964,0.22054 -0.75674,1.23258 -1.238,2.24895 l -0.87493,1.84797 0.0205,9.06045 c 0.0113,4.98325 0.0808,9.12078 0.15459,9.19452 0.0737,0.0737 1.34135,-0.0641 2.81692,-0.30632 2.57094,-0.42202 2.73004,-0.41987 3.81416,0.0516 0.62222,0.27059 1.47776,0.72843 1.90119,1.01743 l 0.76989,0.52545 -0.15765,-2.36323 c -0.0867,-1.29978 -0.33903,-3.67292 -0.56071,-5.27364 -0.22169,-1.60073 -0.7019,-5.17261 -1.06714,-7.9375 -0.36524,-2.7649 -0.9249,-6.96265 -1.24369,-9.32834 -0.31878,-2.36569 -0.52697,-4.3539 -0.46263,-4.41824 0.0643,-0.0643 2.88136,-0.0448 6.26003,0.0433 l 6.14305,0.16027 v 1.94286 c 0,2.26619 -0.0329,2.24946 2.52773,1.28564 0.96034,-0.36147 2.33284,-0.83147 3.05002,-1.04445 l 1.30395,-0.38723 2.67841,3.22726 c 1.47313,1.77499 3.1692,3.8058 3.76905,4.5129 0.59985,0.7071 1.48447,1.89772 1.96582,2.64583 l 0.87519,1.3602 -0.16797,2.64583 c -0.0924,1.45521 -0.39692,4.90285 -0.67675,7.66143 -0.27983,2.75858 -0.50878,5.51751 -0.50878,6.13095 0,0.9836 -0.13283,1.22994 -1.12448,2.08551 -1.46723,1.26588 -3.23532,2.15344 -5.84711,2.93519 -3.22616,0.96563 -3.32445,0.94065 -4.53395,-1.15214 -0.56768,-0.98227 -1.42586,-2.37966 -1.90706,-3.10533 -1.02643,-1.54789 -1.04232,-1.63452 -0.34069,-1.85721 0.42305,-0.13428 0.90729,0.22872 2.32712,1.74444 l 1.7929,1.914 0.84789,-1.15294 0.84788,-1.15294 -5.3e-4,-5.57027 c -7.9e-4,-7.7668 -0.84627,-17.90709 -1.56508,-18.7732 -0.29008,-0.34953 -1.85976,-0.1712 -4.12282,0.4684 l -1.05833,0.29911 0.002,12.83229 c 10e-4,9.84353 0.11461,14.37289 0.48647,19.44688 0.26663,3.63802 0.44445,7.15036 0.39517,7.8052 l -0.0896,1.19063 -1.50773,-2.91042 -1.50772,-2.91042 -0.0763,2.64584 c -0.042,1.45521 -0.0335,4.45813 0.0187,6.67316 0.11383,4.82348 -0.19752,11.76933 -0.51866,11.57085 -0.12623,-0.078 -0.73403,-1.14558 -1.35067,-2.37236 -0.71531,-1.42308 -1.1955,-2.11353 -1.32651,-1.90733 -0.11293,0.17774 -0.20716,1.16838 -0.20938,2.20141 -0.004,1.78882 -0.85455,12.59986 -1.27832,16.24573 -0.14901,1.28193 -0.24388,1.55138 -0.37265,1.05833 z"
       id="path1403"
       inkscape:connector-curvature="0" />
  </g>
</svg>
