<?xml version="1.0" encoding="UTF-8" standalone="no"?>
<!-- Created with Inkscape (http://www.inkscape.org/) -->

<svg
   xmlns:dc="http://purl.org/dc/elements/1.1/"
   xmlns:cc="http://creativecommons.org/ns#"
   xmlns:rdf="http://www.w3.org/1999/02/22-rdf-syntax-ns#"
   xmlns:svg="http://www.w3.org/2000/svg"
   xmlns="http://www.w3.org/2000/svg"
   xmlns:sodipodi="http://sodipodi.sourceforge.net/DTD/sodipodi-0.dtd"
   xmlns:inkscape="http://www.inkscape.org/namespaces/inkscape"
   width="1322.3904mm"
   height="571.50861mm"
   viewBox="0 0 1322.3904 571.50861"
   version="1.1"
   id="svg1430"
   inkscape:version="0.92.3 (unknown)"
   sodipodi:docname="star_wars.svg">
  <defs
     id="defs1424" />
  <sodipodi:namedview
     id="base"
     pagecolor="#ffffff"
     bordercolor="#666666"
     borderopacity="1.0"
     inkscape:pageopacity="0.0"
     inkscape:pageshadow="2"
     inkscape:zoom="0.097278973"
     inkscape:cx="2639.4951"
     inkscape:cy="232.17159"
     inkscape:document-units="mm"
     inkscape:current-layer="layer1"
     showgrid="false"
     fit-margin-top="0"
     fit-margin-left="0"
     fit-margin-right="0"
     fit-margin-bottom="0"
     inkscape:window-width="1920"
     inkscape:window-height="1023"
     inkscape:window-x="0"
     inkscape:window-y="27"
     inkscape:window-maximized="1" />
  <metadata
     id="metadata1427">
    <rdf:RDF>
      <cc:Work
         rdf:about="">
        <dc:format>image/svg+xml</dc:format>
        <dc:type
           rdf:resource="http://purl.org/dc/dcmitype/StillImage" />
        <dc:title></dc:title>
      </cc:Work>
    </rdf:RDF>
  </metadata>
  <g
     inkscape:label="Layer 1"
     inkscape:groupmode="layer"
     id="layer1"
     transform="translate(514.635,-294.14923)">
    <path
       style="fill:#000000;stroke-width:0.26458332"
       d="m -429.65417,865.19382 c -0.39437,-0.33835 -2.3207,-6.23343 -7.15439,-21.89428 -3.63809,-11.78718 -9.19352,-29.76562 -12.34539,-39.95208 -3.15187,-10.18646 -9.04218,-29.23646 -13.08958,-42.33333 -8.69065,-28.1219 -30.70271,-99.31474 -43.2405,-139.85127 -4.88671,-15.79946 -8.88492,-29.10051 -8.88492,-29.55787 0,-0.52467 0.17091,-0.91977 0.46302,-1.07043 0.26756,-0.13798 23.52674,-0.31554 55.09947,-0.42058 45.15044,-0.1502 54.71896,-0.12091 55.11163,0.16867 0.336,0.24784 3.59279,10.88769 11.11991,36.32849 10.02215,33.87365 10.68092,35.98317 11.26316,36.06654 0.34013,0.0487 0.71534,-0.0109 0.83381,-0.13229 0.11847,-0.12147 1.64423,-5.34053 3.39058,-11.59793 1.74635,-6.2574 5.45436,-19.53287 8.24002,-29.50104 2.78567,-9.96818 5.65812,-20.26709 6.38323,-22.88646 0.72511,-2.61938 1.555,-5.56644 1.84419,-6.54905 l 0.52582,-1.78654 57.06229,0.0667 57.0623,0.0668 11.25868,36.07017 c 7.39841,23.70269 11.40288,36.15086 11.67916,36.30549 0.87333,0.48873 1.29124,-0.4195 3.29279,-7.15587 2.32122,-7.81228 10.12941,-33.99036 15.50739,-51.99063 2.04343,-6.83948 3.82577,-12.64377 3.96073,-12.89844 0.23244,-0.43854 2.96918,-0.46302 51.77694,-0.46302 39.7273,0 51.604258,0.0727 51.849018,0.3175 0.5256,0.5256 0.37664,1.40994 -0.98856,5.8683 -0.71834,2.34588 -5.431658,17.83837 -10.474058,34.42775 -15.15044,49.84469 -44.8841,147.5392 -69.4418,228.16161 -0.99036,3.25139 -1.93841,6.04935 -2.10674,6.21771 -0.22887,0.22886 -11.91054,0.32335 -46.29835,0.37444 -43.56279,0.0647 -46.02041,0.0438 -46.52556,-0.39688 -0.3948,-0.34438 -4.50232,-13.62445 -15.81538,-51.13292 -8.40514,-27.86724 -15.39897,-50.92904 -15.54185,-51.24847 -0.3283,-0.73393 -0.81668,-0.92663 -1.332,-0.52555 -0.34128,0.26562 -9.61574,29.82611 -28.15602,89.74172 -2.44201,7.89171 -4.04451,12.65294 -4.3858,13.03073 l -0.53777,0.59532 h -45.4329 c -42.88745,0 -45.46314,-0.0259 -45.97257,-0.46302 z m 299.72478,0.27532 c -0.62915,-0.23135 -1.36456,-0.95305 -1.60105,-1.57123 -0.15671,-0.4097 0.41074,-2.66184 2.03335,-8.06979 2.17845,-7.26048 24.54455,-81.2873 32.603648,-107.91087 2.18049,-7.20328 8.08988,-26.72953 13.13201,-43.39167 10.0339,-33.15784 20.99144,-69.34091 27.12247,-89.56145 2.16204,-7.13053 4.58605,-15.13026 5.38673,-17.77715 1.68111,-5.55752 1.77162,-5.75889 2.89753,-6.44541 0.82949,-0.50575 2.04518,-0.51403 75.730096,-0.51501 h 74.887056 l 0.86868,0.72761 c 0.97282,0.81486 -0.14576,-2.6415 15.77708,48.74948 4.1706,13.46067 9.17328,29.59364 11.11705,35.85104 1.94378,6.25739 7.77766,25.06927 12.96421,41.80417 5.18655,16.73489 12.56728,40.54739 16.40162,52.91666 8.37896,27.02968 21.7311,70.18748 25.77934,83.32576 1.61112,5.22886 2.92933,9.66812 2.92933,9.86504 0,0.66551 -0.82396,1.62111 -1.64444,1.90712 -0.57015,0.19876 -15.32813,0.28438 -49.01662,0.28438 H 89.237832 l -0.567717,-0.60434 c -0.387667,-0.41262 -2.413317,-6.39209 -6.3863,-18.85156 -3.200215,-10.03597 -6.015699,-18.62558 -6.256655,-19.08802 -0.240929,-0.46244 -0.751364,-0.96997 -1.134295,-1.12784 -0.493527,-0.20349 -13.996273,-0.26683 -46.381695,-0.21754 l -45.685469,0.0695 -0.622803,0.5851 c -0.487495,0.458 -1.88613,4.64532 -6.43744,19.27262 -4.48713,14.42104 -5.95879,18.83302 -6.44605,19.3248 l -0.63137,0.63728 -49.11029,-0.0209 c -27.010648,-0.0116 -49.288858,-0.0866 -49.507138,-0.16682 z M 50.988238,750.41473 c 0.708792,-0.49643 1.380278,-1.72347 1.380278,-2.52219 0,-0.62526 -1.526355,-5.6764 -10.066469,-33.31279 -11.754855,-38.03957 -12.068757,-39.02403 -12.468066,-39.10243 -0.296809,-0.0583 -1.287647,2.8284 -4.177665,12.17084 -9.273539,29.97819 -11.347211,36.70554 -14.459161,46.90763 -1.8199085,5.96636 -3.4721785,11.3501 -3.6717015,11.96385 -0.440319,1.35462 -0.138932,2.74175 0.799677,3.68036 l 0.627671,0.62767 H 29.675734 c 18.350414,0 20.790454,-0.0473 21.312504,-0.41294 z M 212.50374,865.3826 c -0.32954,-0.1324 -0.7165,-0.54933 -0.8599,-0.92652 -0.17005,-0.44723 -0.26075,-48.2627 -0.26075,-137.45814 V 590.22558 h 97.62114 c 95.57954,0 97.7057,0.0109 101.66614,0.52123 19.67757,2.53553 38.49391,10.27629 52.6496,21.6593 18.6423,14.99076 29.18266,33.93911 31.7419,57.06218 0.52205,4.71676 0.4504,17.8104 -0.12264,22.40884 -2.6738,21.45641 -12.10397,39.22154 -27.44284,51.69839 -5.53112,4.49908 -14.32804,10.72049 -18.76052,13.26795 -4.14639,2.38303 -4.69281,3.8875 -2.37027,6.52606 1.69878,1.92989 4.00968,3.06176 8.30186,4.06611 1.68674,0.39471 8.18253,0.44051 72.76041,0.51314 70.83393,0.0797 70.90925,0.0792 71.78415,-0.45667 0.484,-0.29647 1.05582,-0.96727 1.27818,-1.49948 0.80663,-1.9305 0.68352,-2.10785 -7.27779,-10.48274 -17.87789,-18.80661 -25.78042,-27.67195 -29.05583,-32.59576 -8.66465,-13.02539 -14.48821,-28.63157 -16.09743,-43.13854 -0.47482,-4.28051 -0.53599,-12.30638 -0.1229,-16.12813 1.58165,-14.63321 7.49686,-28.60956 17.41244,-41.1417 2.35704,-2.97903 9.7241,-10.42639 12.35001,-12.48461 12.32461,-9.66028 30.17086,-16.96333 47.55877,-19.46209 3.0434,-0.43735 8.70755,-0.46577 92.80268,-0.46577 h 89.56146 l 0.0669,44.64844 0.0669,44.64844 h -68.2753 -68.27528 l -0.63867,0.63868 c -0.7451,0.74509 -1.04977,1.73773 -0.81743,2.66337 0.0906,0.36095 2.45496,3.07113 5.2542,6.02266 17.25771,18.19666 27.83406,29.79015 32.76771,35.91904 7.83987,9.73915 12.79107,19.17102 15.97253,30.42708 3.98169,14.08734 4.36819,31.39792 1.02161,45.75617 -4.01548,17.22824 -13.07542,32.65604 -25.59243,43.5804 -13.7808,12.02732 -29.57526,18.74607 -48.84555,20.7782 -2.68123,0.28276 -24.04226,0.34877 -112.84478,0.34877 -104.54074,0 -109.70043,-0.022 -113.10937,-0.4827 -17.36635,-2.34686 -32.05435,-8.14771 -42.29201,-16.70272 -1.25965,-1.05262 -15.22113,-14.89697 -31.02554,-30.7652 -15.80438,-15.86823 -28.99984,-28.99296 -29.32327,-29.16605 -1.42287,-0.7615 -1.34043,-3.13624 -1.34043,38.61149 v 38.63748 l -53.64427,-0.0167 c -31.55709,-0.01 -53.89096,-0.11589 -54.24341,-0.25747 z M 384.55288,702.57682 c 3.41055,-0.91519 7.03916,-3.04326 8.98826,-5.2714 2.70217,-3.08898 3.91777,-6.63853 3.91541,-11.43296 -0.003,-5.40033 -1.31916,-8.83203 -4.67892,-12.19655 -2.41837,-2.42184 -5.02832,-3.89313 -8.75392,-4.93485 l -2.11667,-0.59182 -29.52972,-0.0747 c -28.86961,-0.073 -29.54387,-0.0632 -30.1625,0.4376 l -0.63277,0.51228 -0.0721,16.13572 -0.0721,16.13573 0.69091,0.82108 0.6909,0.8211 30.20513,-0.003 c 24.42352,-0.003 30.45835,-0.0711 31.52804,-0.35811 z M -514.5681,520.9709 l 0.0668,-48.61719 110.72812,-0.13229 c 94.97311,-0.11347 110.80844,-0.18567 111.29261,-0.50742 1.27796,-0.84925 1.80242,-2.87446 1.07978,-4.16954 -0.17674,-0.31675 -1.03821,-1.32878 -1.91436,-2.24895 -20.54155,-21.57358 -30.07627,-32.13459 -33.76228,-37.39636 -5.70932,-8.15002 -11.15949,-19.91516 -13.97926,-30.17666 -2.34661,-8.53957 -3.32081,-16.20017 -3.09318,-24.32295 0.19107,-6.81785 0.83557,-11.23821 2.56536,-17.59479 4.84374,-17.79954 17.52288,-35.43136 32.66445,-45.42372 12.4476,-8.21453 30.31859,-14.58261 44.76942,-15.95297 1.91716,-0.1818 66.1763,-0.27086 195.538388,-0.27101 l 192.682802,-2.2e-4 v 44.84688 44.84687 H 64.539299 5.0080525 v 92.86875 92.86875 H -43.939862 -92.887772 V 476.58704 383.586 h -63.908908 -63.90889 l -0.64945,0.64943 c -0.50122,0.50123 -0.64941,0.9271 -0.64941,1.86619 0,1.16713 0.0944,1.31637 2.3151,3.65946 32.39275,34.17823 37.51781,40.07112 43.23723,49.71498 7.8419,13.22275 11.57618,27.74765 11.59224,45.08939 0.0127,13.7067 -2.4973,25.36795 -8.03669,37.33783 -7.48173,16.16704 -19.42648,28.86225 -35.21726,37.42992 -7.91279,4.29329 -17.36489,7.52399 -26.52167,9.06503 -7.34468,1.23608 -0.99079,1.18401 -144.86288,1.18702 l -135.13664,0.003 z m 600.924249,47.96845 c -0.4005,-0.4005 -0.650134,-0.95385 -0.650134,-1.44113 0,-0.69488 4.210976,-14.97838 11.240293,-38.1268 1.215204,-4.00183 4.669892,-15.43183 7.677092,-25.4 6.71518,-22.25939 18.80926,-62.27365 34.7064,-114.82917 6.62467,-21.90089 15.65842,-51.76733 20.075,-66.36987 4.41658,-14.60254 8.22415,-26.84616 8.46127,-27.20804 0.98332,-1.50077 -4.08623,-1.40754 76.5153,-1.4071 70.2047,3.9e-4 74.34016,0.0259 75.19749,0.46302 0.49898,0.25444 1.11908,0.76027 1.378,1.12407 0.25892,0.3638 6.37784,19.71146 13.59755,42.99479 7.21971,23.28334 18.70556,60.31178 25.52411,82.28542 16.16332,52.08847 38.59623,124.50929 43.24033,139.59412 1.10209,3.57978 2.00382,6.74848 2.00382,7.04154 0,0.29305 -0.3139,0.84669 -0.69755,1.23034 l -0.69752,0.69754 h -48.90574 -48.90574 l -0.41989,-0.64084 c -0.23093,-0.35246 -3.09163,-9.01425 -6.35709,-19.24843 -4.92229,-15.42679 -6.05261,-18.70936 -6.61242,-19.20291 l -0.67522,-0.59532 h -45.74571 c -32.96719,0 -45.92584,0.0821 -46.39056,0.29381 -0.35465,0.1616 -0.77983,0.54855 -0.94485,0.8599 -0.16502,0.31135 -2.85935,8.7814 -5.98742,18.82233 -3.12809,10.04094 -5.90626,18.55391 -6.17376,18.91771 l -0.48633,0.66146 -49.65829,0.0668 -49.658323,0.0668 z M 269.01016,453.70058 c 1.04196,-1.53056 2.37546,3.19882 -14.39831,-51.06458 -6.69155,-21.64728 -7.21923,-23.28333 -7.50996,-23.28333 -0.3284,0 -0.71352,1.15123 -4.77946,14.2875 -4.41176,14.25349 -16.32248,52.93117 -17.23262,55.95937 -0.71861,2.391 -0.63794,3.48229 0.3339,4.51677 l 0.60664,0.64573 21.17471,-0.0677 21.1747,-0.0677 z M 424.0168,569.10424 c -0.40627,-0.44895 -0.43788,-10.39158 -0.43788,-137.71944 V 294.14923 l 98.22655,0.0741 98.22656,0.0741 4.36563,0.69986 c 23.96206,3.84137 43.61703,13.36015 58.6088,28.38388 14.664,14.69527 22.49781,31.56931 24.22226,52.17484 0.41947,5.01235 0.19121,17.40731 -0.39881,21.65598 -1.34382,9.67667 -3.90321,18.22698 -7.80568,26.07703 -4.93107,9.91912 -11.73096,18.21995 -20.91449,25.53095 -4.80365,3.82418 -12.50588,9.26805 -15.90278,11.23995 -5.13575,2.98129 -5.7762,3.83632 -4.62934,6.1804 1.50749,3.08122 5.7403,5.00056 12.57459,5.7019 1.83171,0.18796 24.74925,0.27915 70.16099,0.27915 h 67.4407 v 48.68333 48.68333 h -83.61876 c -57.58605,0 -84.41864,-0.0881 -86.18801,-0.28294 -6.14281,-0.67652 -13.96532,-2.30802 -19.63489,-4.0952 -8.33467,-2.62728 -17.2951,-7.24917 -23.28333,-12.0098 -0.94589,-0.75198 -15.12586,-14.76612 -31.51103,-31.14253 -25.10372,-25.09025 -29.8913,-29.76114 -30.42708,-29.68543 l -0.63585,0.0899 -0.067,38.56303 -0.067,38.56301 h -53.93312 c -51.91349,0 -53.94949,-0.0182 -54.37097,-0.48384 z M 596.49467,406.73548 c 0.86733,-0.21913 2.7,-0.94948 4.07263,-1.62298 4.57118,-2.24294 7.62587,-6.10918 8.64613,-10.94317 0.61203,-2.89992 0.38052,-7.38835 -0.52652,-10.2072 -1.36583,-4.24468 -4.22135,-7.45161 -8.45084,-9.49084 -4.7312,-2.28113 -1.85076,-2.1028 -35.44091,-2.19427 -20.23923,-0.0551 -30.00174,0.007 -30.34938,0.19302 -0.28186,0.15085 -0.61936,0.66142 -0.75001,1.13461 -0.23418,0.84814 -0.14132,30.97421 0.0991,32.13351 0.29549,1.42507 -0.86691,1.3737 31.34672,1.38516 25.66937,0.009 29.99367,-0.0444 31.35312,-0.38784 z"
       id="path1997"
       inkscape:connector-curvature="0" />
  </g>
</svg>
