<?xml version="1.0" encoding="UTF-8" standalone="no"?>
<!-- Created with Inkscape (http://www.inkscape.org/) -->

<svg
   xmlns:dc="http://purl.org/dc/elements/1.1/"
   xmlns:cc="http://creativecommons.org/ns#"
   xmlns:rdf="http://www.w3.org/1999/02/22-rdf-syntax-ns#"
   xmlns:svg="http://www.w3.org/2000/svg"
   xmlns="http://www.w3.org/2000/svg"
   xmlns:sodipodi="http://sodipodi.sourceforge.net/DTD/sodipodi-0.dtd"
   xmlns:inkscape="http://www.inkscape.org/namespaces/inkscape"
   width="153.37541mm"
   height="29.415154mm"
   viewBox="0 0 153.37541 29.415154"
   version="1.1"
   id="svg8"
   inkscape:version="0.92.3 (unknown)"
   sodipodi:docname="iff_lightbg.svg">
  <defs
     id="defs2" />
  <sodipodi:namedview
     id="base"
     pagecolor="#ffffff"
     bordercolor="#666666"
     borderopacity="1.0"
     inkscape:pageopacity="0.0"
     inkscape:pageshadow="2"
     inkscape:zoom="1.2235871"
     inkscape:cx="311.12181"
     inkscape:cy="95.637994"
     inkscape:document-units="mm"
     inkscape:current-layer="layer1"
     showgrid="false"
     inkscape:window-width="1920"
     inkscape:window-height="1023"
     inkscape:window-x="0"
     inkscape:window-y="27"
     inkscape:window-maximized="1"
     fit-margin-top="0"
     fit-margin-left="0"
     fit-margin-right="0"
     fit-margin-bottom="0" />
  <metadata
     id="metadata5">
    <rdf:RDF>
      <cc:Work
         rdf:about="">
        <dc:format>image/svg+xml</dc:format>
        <dc:type
           rdf:resource="http://purl.org/dc/dcmitype/StillImage" />
        <dc:title></dc:title>
      </cc:Work>
    </rdf:RDF>
  </metadata>
  <g
     inkscape:label="Layer 1"
     inkscape:groupmode="layer"
     id="layer1"
     transform="translate(-63.064932,-197.58649)">
    <path
       inkscape:connector-curvature="0"
       id="rect826"
       d="M 74.401201,197.58649 H 216.44034 L 205.10407,215.7454 H 63.064928 Z"
       style="opacity:1;vector-effect:none;fill:#0176b8;fill-opacity:1;stroke:none;stroke-width:1.07238257;stroke-linecap:round;stroke-linejoin:round;stroke-miterlimit:4;stroke-dasharray:none;stroke-dashoffset:0;stroke-opacity:1" />
    <path
       d="m 92.274127,201.99771 -2.391557,7.31044 h -1.817165 l -1.608296,-4.95021 -1.660514,4.95021 h -1.806722 l -2.402,-7.31044 h 1.754504 l 1.65007,5.1382 1.723175,-5.1382 h 1.566522 l 1.670957,5.17997 1.702287,-5.17997 z"
       style="font-style:normal;font-variant:normal;font-weight:bold;font-stretch:normal;font-size:medium;line-height:1.25;font-family:Montserrat;-inkscape-font-specification:'Montserrat Bold';text-align:start;letter-spacing:0px;word-spacing:0px;text-anchor:start;fill:#ffffff;fill-opacity:1;stroke:none;stroke-width:0.65271753"
       id="path2979"
       inkscape:connector-curvature="0" />
    <path
       d="m 96.656963,209.43347 q -1.13834,0 -2.057366,-0.49084 -0.908583,-0.49084 -1.430757,-1.34721 -0.51173,-0.86681 -0.51173,-1.94249 0,-1.07568 0.51173,-1.93204 0.522174,-0.86681 1.430757,-1.35765 0.919026,-0.49085 2.057366,-0.49085 1.138339,0 2.046922,0.49085 0.908583,0.49084 1.430755,1.35765 0.52218,0.85636 0.52218,1.93204 0,1.07568 -0.52218,1.94249 -0.522172,0.85637 -1.430755,1.34721 -0.908583,0.49084 -2.046922,0.49084 z m 0,-1.4412 q 0.647496,0 1.16967,-0.29241 0.522174,-0.30287 0.814591,-0.83548 0.302861,-0.53262 0.302861,-1.21145 0,-0.67882 -0.302861,-1.21144 -0.292417,-0.53262 -0.814591,-0.82504 -0.522174,-0.30286 -1.16967,-0.30286 -0.647496,0 -1.16967,0.30286 -0.522174,0.29242 -0.825035,0.82504 -0.292417,0.53262 -0.292417,1.21144 0,0.67883 0.292417,1.21145 0.302861,0.53261 0.825035,0.83548 0.522174,0.29241 1.16967,0.29241 z"
       style="font-style:normal;font-variant:normal;font-weight:bold;font-stretch:normal;font-size:medium;line-height:1.25;font-family:Montserrat;-inkscape-font-specification:'Montserrat Bold';text-align:start;letter-spacing:0px;word-spacing:0px;text-anchor:start;fill:#ffffff;fill-opacity:1;stroke:none;stroke-width:0.65271753"
       id="path2981"
       inkscape:connector-curvature="0" />
    <path
       d="m 108.58081,209.30815 -0.0105,-4.38626 -2.15135,3.61344 h -0.76238 l -2.14091,-3.51945 v 4.29227 h -1.58741 v -7.31044 h 1.39943 l 2.73619,4.54292 2.69442,-4.54292 h 1.38898 l 0.0209,7.31044 z"
       style="font-style:normal;font-variant:normal;font-weight:bold;font-stretch:normal;font-size:medium;line-height:1.25;font-family:Montserrat;-inkscape-font-specification:'Montserrat Bold';text-align:start;letter-spacing:0px;word-spacing:0px;text-anchor:start;fill:#ffffff;fill-opacity:1;stroke:none;stroke-width:0.65271753"
       id="path2983"
       inkscape:connector-curvature="0" />
    <path
       d="m 117.56301,207.9505 v 1.35765 h -5.66036 v -7.31044 h 5.5246 v 1.35766 h -3.8432 v 1.58741 h 3.39413 v 1.31587 h -3.39413 v 1.69185 z"
       style="font-style:normal;font-variant:normal;font-weight:bold;font-stretch:normal;font-size:medium;line-height:1.25;font-family:Montserrat;-inkscape-font-specification:'Montserrat Bold';text-align:start;letter-spacing:0px;word-spacing:0px;text-anchor:start;fill:#ffffff;fill-opacity:1;stroke:none;stroke-width:0.65271753"
       id="path2985"
       inkscape:connector-curvature="0" />
    <path
       d="m 125.62408,201.99771 v 7.31044 h -1.38898 l -3.64478,-4.43848 v 4.43848 h -1.67096 v -7.31044 h 1.39943 l 3.63433,4.43848 v -4.43848 z"
       style="font-style:normal;font-variant:normal;font-weight:bold;font-stretch:normal;font-size:medium;line-height:1.25;font-family:Montserrat;-inkscape-font-specification:'Montserrat Bold';text-align:start;letter-spacing:0px;word-spacing:0px;text-anchor:start;fill:#ffffff;fill-opacity:1;stroke:none;stroke-width:0.65271753"
       id="path2987"
       inkscape:connector-curvature="0" />
    <path
       d="m 130.32152,201.99771 h 1.69184 v 7.31044 h -1.69184 z"
       style="font-style:normal;font-variant:normal;font-weight:bold;font-stretch:normal;font-size:medium;line-height:1.25;font-family:Montserrat;-inkscape-font-specification:'Montserrat Bold';text-align:start;letter-spacing:0px;word-spacing:0px;text-anchor:start;fill:#ffffff;fill-opacity:1;stroke:none;stroke-width:0.65271753"
       id="path2989"
       inkscape:connector-curvature="0" />
    <path
       d="m 140.453,201.99771 v 7.31044 h -1.38898 l -3.64477,-4.43848 v 4.43848 h -1.67096 v -7.31044 h 1.39943 l 3.63433,4.43848 v -4.43848 z"
       style="font-style:normal;font-variant:normal;font-weight:bold;font-stretch:normal;font-size:medium;line-height:1.25;font-family:Montserrat;-inkscape-font-specification:'Montserrat Bold';text-align:start;letter-spacing:0px;word-spacing:0px;text-anchor:start;fill:#ffffff;fill-opacity:1;stroke:none;stroke-width:0.65271753"
       id="path2991"
       inkscape:connector-curvature="0" />
    <path
       d="m 148.64902,209.43347 q -1.11746,0 -2.02604,-0.4804 -0.89814,-0.49084 -1.42031,-1.34721 -0.51173,-0.8668 -0.51173,-1.95293 0,-1.08612 0.51173,-1.94248 0.52217,-0.86681 1.42031,-1.34721 0.90858,-0.49085 2.03648,-0.49085 0.95036,0 1.71273,0.33419 0.77282,0.3342 1.29499,0.9608 l -1.08612,1.00258 q -0.74149,-0.85637 -1.83805,-0.85637 -0.67883,0 -1.21145,0.30286 -0.53261,0.29242 -0.83547,0.82504 -0.29242,0.53262 -0.29242,1.21144 0,0.67883 0.29242,1.21145 0.30286,0.53261 0.83547,0.83548 0.53262,0.29241 1.21145,0.29241 1.09656,0 1.83805,-0.86681 l 1.08612,1.00258 q -0.52217,0.63705 -1.29499,0.97124 -0.77282,0.33419 -1.72317,0.33419 z"
       style="font-style:normal;font-variant:normal;font-weight:bold;font-stretch:normal;font-size:medium;line-height:1.25;font-family:Montserrat;-inkscape-font-specification:'Montserrat Bold';text-align:start;letter-spacing:0px;word-spacing:0px;text-anchor:start;fill:#ffffff;fill-opacity:1;stroke:none;stroke-width:0.65271753"
       id="path2993"
       inkscape:connector-curvature="0" />
    <path
       d="m 155.14029,209.43347 q -0.86681,0 -1.6814,-0.22975 -0.80415,-0.2402 -1.29499,-0.61617 l 0.57439,-1.2741 q 0.46996,0.34463 1.11745,0.5535 0.6475,0.20887 1.295,0.20887 0.7206,0 1.06523,-0.20887 0.34464,-0.21931 0.34464,-0.57439 0,-0.26109 -0.20887,-0.42818 -0.19843,-0.17754 -0.52218,-0.28198 -0.3133,-0.10443 -0.85636,-0.22975 -0.83548,-0.19843 -1.3681,-0.39686 -0.53262,-0.19842 -0.91903,-0.63705 -0.37596,-0.43862 -0.37596,-1.16967 0,-0.63705 0.34463,-1.14878 0.34464,-0.52217 1.03391,-0.82504 0.69971,-0.30286 1.70229,-0.30286 0.69971,0 1.36809,0.1671 0.66838,0.16709 1.16967,0.4804 l -0.52217,1.28455 q -1.01302,-0.57439 -2.02604,-0.57439 -0.71015,0 -1.05479,0.22975 -0.33419,0.22976 -0.33419,0.60572 0,0.37597 0.38641,0.56395 0.39685,0.17754 1.201,0.35508 0.83548,0.19843 1.36809,0.39685 0.53262,0.19843 0.90859,0.62661 0.38641,0.42818 0.38641,1.15923 0,0.62661 -0.35508,1.14878 -0.34464,0.51173 -1.04435,0.81459 -0.69971,0.30286 -1.70229,0.30286 z"
       style="font-style:normal;font-variant:normal;font-weight:bold;font-stretch:normal;font-size:medium;line-height:1.25;font-family:Montserrat;-inkscape-font-specification:'Montserrat Bold';text-align:start;letter-spacing:0px;word-spacing:0px;text-anchor:start;fill:#ffffff;fill-opacity:1;stroke:none;stroke-width:0.65271753"
       id="path2995"
       inkscape:connector-curvature="0" />
    <path
       d="m 166.961,201.89328 q 1.4412,0 2.55865,0.59528 1.1279,0.58483 1.75451,1.61874 0.62661,1.0339 0.62661,2.33934 0,0.91902 -0.27153,1.58741 -0.26109,0.65794 -0.74149,1.00257 -0.4804,0.34464 -1.1279,0.34464 -0.53261,0 -0.89813,-0.22976 -0.36553,-0.22976 -0.53262,-0.67883 -0.56395,0.90859 -1.78584,0.90859 -0.66838,0 -1.22188,-0.3342 -0.55351,-0.33419 -0.87726,-0.92947 -0.3133,-0.60572 -0.3133,-1.37853 0,-0.76238 0.3133,-1.35766 0.32375,-0.60572 0.86681,-0.93991 0.55351,-0.33419 1.23233,-0.33419 1.03391,0 1.6083,0.68927 v -0.61617 h 1.42031 v 3.38369 q 0,0.66838 0.50129,0.66838 0.36552,0 0.56395,-0.43862 0.20887,-0.43863 0.20887,-1.32633 0,-1.05479 -0.49085,-1.85893 -0.4804,-0.8146 -1.36809,-1.26367 -0.87726,-0.45951 -2.02604,-0.45951 -1.14878,0 -2.03648,0.49084 -0.87725,0.4804 -1.36809,1.33677 -0.4804,0.85637 -0.4804,1.94249 0,1.10701 0.4804,1.97382 0.4804,0.85636 1.34721,1.33676 0.87725,0.49084 2.01559,0.49084 1.12789,0 2.05736,-0.45951 l 0.33419,0.9608 q -0.46995,0.2402 -1.11745,0.36552 -0.63705,0.13577 -1.2741,0.13577 -1.48298,0 -2.62132,-0.62661 -1.13834,-0.61617 -1.76494,-1.71273 -0.62661,-1.09657 -0.62661,-2.46466 0,-1.35766 0.62661,-2.44378 0.63705,-1.08612 1.78583,-1.70228 1.14878,-0.61617 2.6422,-0.61617 z m -0.094,6.28698 q 0.57439,0 0.93991,-0.37597 0.36553,-0.38641 0.36553,-1.06523 0,-0.66839 -0.36553,-1.04435 -0.36552,-0.37597 -0.93991,-0.37597 -0.58483,0 -0.93991,0.38641 -0.35508,0.37597 -0.35508,1.03391 0,0.66838 0.35508,1.05479 0.35508,0.38641 0.93991,0.38641 z"
       style="font-style:normal;font-variant:normal;font-weight:bold;font-stretch:normal;font-size:medium;line-height:1.25;font-family:Montserrat;-inkscape-font-specification:'Montserrat Bold';text-align:start;letter-spacing:0px;word-spacing:0px;text-anchor:start;fill:#ffffff;fill-opacity:1;stroke:none;stroke-width:0.65271753"
       id="path2997"
       inkscape:connector-curvature="0" />
    <path
       d="m 177.64844,203.37625 h -2.33934 v -1.37854 h 6.37052 v 1.37854 h -2.33934 v 5.9319 h -1.69184 z"
       style="font-style:normal;font-variant:normal;font-weight:bold;font-stretch:normal;font-size:medium;line-height:1.25;font-family:Montserrat;-inkscape-font-specification:'Montserrat Bold';text-align:start;letter-spacing:0px;word-spacing:0px;text-anchor:start;fill:#ffffff;fill-opacity:1;stroke:none;stroke-width:0.65271753"
       id="path2999"
       inkscape:connector-curvature="0" />
    <path
       d="m 185.70525,209.43347 q -1.56652,0 -2.44377,-0.86681 -0.86681,-0.8668 -0.86681,-2.4751 v -4.09385 h 1.69184 v 4.03119 q 0,1.96337 1.62919,1.96337 0.7937,0 1.21144,-0.46995 0.41774,-0.4804 0.41774,-1.49342 v -4.03119 h 1.67096 v 4.09385 q 0,1.6083 -0.87725,2.4751 -0.86681,0.86681 -2.43334,0.86681 z"
       style="font-style:normal;font-variant:normal;font-weight:bold;font-stretch:normal;font-size:medium;line-height:1.25;font-family:Montserrat;-inkscape-font-specification:'Montserrat Bold';text-align:start;letter-spacing:0px;word-spacing:0px;text-anchor:start;fill:#ffffff;fill-opacity:1;stroke:none;stroke-width:0.65271753"
       id="path3001"
       inkscape:connector-curvature="0" />
    <path
       d="m 197.32999,209.30815 -0.0104,-4.38626 -2.15136,3.61344 h -0.76237 l -2.14092,-3.51945 v 4.29227 h -1.58741 v -7.31044 h 1.39943 l 2.73619,4.54292 2.69442,-4.54292 h 1.38898 l 0.0209,7.31044 z"
       style="font-style:normal;font-variant:normal;font-weight:bold;font-stretch:normal;font-size:medium;line-height:1.25;font-family:Montserrat;-inkscape-font-specification:'Montserrat Bold';text-align:start;letter-spacing:0px;word-spacing:0px;text-anchor:start;fill:#ffffff;fill-opacity:1;stroke:none;stroke-width:0.65271753"
       id="path3003"
       inkscape:connector-curvature="0" />
    <path
       d="m 71.281861,221.69886 h 0.748981 v 5.24287 h -0.748981 z"
       style="font-style:normal;font-variant:normal;font-weight:500;font-stretch:normal;font-size:medium;line-height:1.25;font-family:Montserrat;-inkscape-font-specification:'Montserrat Medium';text-align:start;letter-spacing:0px;word-spacing:0px;text-anchor:start;fill:#0176b8;fill-opacity:1;stroke:none;stroke-width:0.46811348"
       id="path3006"
       inkscape:connector-curvature="0" />
    <path
       d="m 78.116669,221.69886 v 5.24287 h -0.614165 l -3.145723,-3.90969 v 3.90969 H 73.6078 v -5.24287 h 0.614164 l 3.145723,3.90968 v -3.90968 z"
       style="font-style:normal;font-variant:normal;font-weight:500;font-stretch:normal;font-size:medium;line-height:1.25;font-family:Montserrat;-inkscape-font-specification:'Montserrat Medium';text-align:start;letter-spacing:0px;word-spacing:0px;text-anchor:start;fill:#0176b8;fill-opacity:1;stroke:none;stroke-width:0.46811348"
       id="path3008"
       inkscape:connector-curvature="0" />
    <path
       d="m 80.442256,222.35047 v 1.82751 h 2.628926 v 0.64413 h -2.628926 v 2.11962 h -0.748981 v -5.24287 h 3.699969 v 0.65161 z"
       style="font-style:normal;font-variant:normal;font-weight:500;font-stretch:normal;font-size:medium;line-height:1.25;font-family:Montserrat;-inkscape-font-specification:'Montserrat Medium';text-align:start;letter-spacing:0px;word-spacing:0px;text-anchor:start;fill:#0176b8;fill-opacity:1;stroke:none;stroke-width:0.46811348"
       id="path3010"
       inkscape:connector-curvature="0" />
    <path
       d="m 86.75582,227.00165 q -0.79392,0 -1.430555,-0.34454 -0.636634,-0.35202 -1.003635,-0.96618 -0.359511,-0.61417 -0.359511,-1.37064 0,-0.75647 0.359511,-1.37064 0.367001,-0.61416 1.003635,-0.95869 0.636635,-0.35202 1.430555,-0.35202 0.786431,0 1.423065,0.35202 0.636634,0.34453 0.996146,0.95869 0.359511,0.60668 0.359511,1.37064 0,0.76396 -0.359511,1.37813 -0.359512,0.60667 -0.996146,0.95869 -0.636634,0.34454 -1.423065,0.34454 z m 0,-0.6666 q 0.576716,0 1.033595,-0.26214 0.464368,-0.26215 0.726512,-0.71902 0.269633,-0.46437 0.269633,-1.0336 0,-0.56922 -0.269633,-1.0261 -0.262144,-0.46437 -0.726512,-0.72652 -0.456879,-0.26214 -1.033595,-0.26214 -0.576716,0 -1.048574,0.26214 -0.464369,0.26215 -0.734002,0.72652 -0.262144,0.45688 -0.262144,1.0261 0,0.56923 0.262144,1.0336 0.269633,0.45687 0.734002,0.71902 0.471858,0.26214 1.048574,0.26214 z"
       style="font-style:normal;font-variant:normal;font-weight:500;font-stretch:normal;font-size:medium;line-height:1.25;font-family:Montserrat;-inkscape-font-specification:'Montserrat Medium';text-align:start;letter-spacing:0px;word-spacing:0px;text-anchor:start;fill:#0176b8;fill-opacity:1;stroke:none;stroke-width:0.46811348"
       id="path3012"
       inkscape:connector-curvature="0" />
    <path
       d="m 94.184548,226.94173 -1.130962,-1.61031 q -0.209715,0.015 -0.329552,0.015 h -1.295738 v 1.59533 h -0.748982 v -5.24287 h 2.04472 q 1.018615,0 1.60282,0.48683 0.584206,0.48684 0.584206,1.34068 0,0.60668 -0.299593,1.0336 -0.299592,0.42691 -0.853839,0.62165 l 1.24331,1.76011 z m -1.482984,-2.23197 q 0.711533,0 1.086023,-0.30708 0.374491,-0.30708 0.374491,-0.87631 0,-0.56923 -0.374491,-0.86882 -0.37449,-0.30708 -1.086023,-0.30708 h -1.273268 v 2.35929 z"
       style="font-style:normal;font-variant:normal;font-weight:500;font-stretch:normal;font-size:medium;line-height:1.25;font-family:Montserrat;-inkscape-font-specification:'Montserrat Medium';text-align:start;letter-spacing:0px;word-spacing:0px;text-anchor:start;fill:#0176b8;fill-opacity:1;stroke:none;stroke-width:0.46811348"
       id="path3014"
       inkscape:connector-curvature="0" />
    <path
       d="m 100.98202,226.94173 -0.007,-3.81981 -1.894921,3.18317 h -0.344531 l -1.894924,-3.1607 v 3.79734 h -0.719022 v -5.24287 h 0.614165 l 2.187026,3.68499 2.157067,-3.68499 h 0.61417 l 0.007,5.24287 z"
       style="font-style:normal;font-variant:normal;font-weight:500;font-stretch:normal;font-size:medium;line-height:1.25;font-family:Montserrat;-inkscape-font-specification:'Montserrat Medium';text-align:start;letter-spacing:0px;word-spacing:0px;text-anchor:start;fill:#0176b8;fill-opacity:1;stroke:none;stroke-width:0.46811348"
       id="path3016"
       inkscape:connector-curvature="0" />
    <path
       d="m 106.61495,225.63101 h -2.78621 l -0.57672,1.31072 h -0.77145 l 2.37427,-5.24287 h 0.7415 l 2.38176,5.24287 h -0.78643 z m -0.26214,-0.59919 -1.13097,-2.569 -1.13096,2.569 z"
       style="font-style:normal;font-variant:normal;font-weight:500;font-stretch:normal;font-size:medium;line-height:1.25;font-family:Montserrat;-inkscape-font-specification:'Montserrat Medium';text-align:start;letter-spacing:0px;word-spacing:0px;text-anchor:start;fill:#0176b8;fill-opacity:1;stroke:none;stroke-width:0.46811348"
       id="path3018"
       inkscape:connector-curvature="0" />
    <path
       d="m 109.53797,222.35047 h -1.79756 v -0.65161 h 4.33661 v 0.65161 h -1.79756 v 4.59126 h -0.74149 z"
       style="font-style:normal;font-variant:normal;font-weight:500;font-stretch:normal;font-size:medium;line-height:1.25;font-family:Montserrat;-inkscape-font-specification:'Montserrat Medium';text-align:start;letter-spacing:0px;word-spacing:0px;text-anchor:start;fill:#0176b8;fill-opacity:1;stroke:none;stroke-width:0.46811348"
       id="path3020"
       inkscape:connector-curvature="0" />
    <path
       d="m 112.90007,221.69886 h 0.74899 v 5.24287 h -0.74899 z"
       style="font-style:normal;font-variant:normal;font-weight:500;font-stretch:normal;font-size:medium;line-height:1.25;font-family:Montserrat;-inkscape-font-specification:'Montserrat Medium';text-align:start;letter-spacing:0px;word-spacing:0px;text-anchor:start;fill:#0176b8;fill-opacity:1;stroke:none;stroke-width:0.46811348"
       id="path3022"
       inkscape:connector-curvature="0" />
    <path
       d="m 116.93369,224.61239 -0.95869,0.97368 v 1.35566 h -0.74899 v -5.24287 h 0.74899 v 2.92851 l 2.84613,-2.92851 h 0.85383 l -2.23945,2.35929 2.38176,2.88358 h -0.87631 z"
       style="font-style:normal;font-variant:normal;font-weight:500;font-stretch:normal;font-size:medium;line-height:1.25;font-family:Montserrat;-inkscape-font-specification:'Montserrat Medium';text-align:start;letter-spacing:0px;word-spacing:0px;text-anchor:start;fill:#0176b8;fill-opacity:1;stroke:none;stroke-width:0.46811348"
       id="path3024"
       inkscape:connector-curvature="0" />
    <path
       d="m 120.00112,224.57494 h 2.01476 v 0.62166 h -2.01476 z"
       style="font-style:normal;font-variant:normal;font-weight:500;font-stretch:normal;font-size:medium;line-height:1.25;font-family:Montserrat;-inkscape-font-specification:'Montserrat Medium';text-align:start;letter-spacing:0px;word-spacing:0px;text-anchor:start;fill:#0176b8;fill-opacity:1;stroke:none;stroke-width:0.46811348"
       id="path3026"
       inkscape:connector-curvature="0" />
    <path
       d="m 123.97681,222.35047 v 1.82751 h 2.62893 v 0.64413 h -2.62893 v 2.11962 h -0.74898 v -5.24287 h 3.69997 v 0.65161 z"
       style="font-style:normal;font-variant:normal;font-weight:500;font-stretch:normal;font-size:medium;line-height:1.25;font-family:Montserrat;-inkscape-font-specification:'Montserrat Medium';text-align:start;letter-spacing:0px;word-spacing:0px;text-anchor:start;fill:#0176b8;fill-opacity:1;stroke:none;stroke-width:0.46811348"
       id="path3028"
       inkscape:connector-curvature="0" />
    <path
       d="m 130.29037,227.00165 q -0.79392,0 -1.43055,-0.34454 -0.63664,-0.35202 -1.00364,-0.96618 -0.35951,-0.61417 -0.35951,-1.37064 0,-0.75647 0.35951,-1.37064 0.367,-0.61416 1.00364,-0.95869 0.63663,-0.35202 1.43055,-0.35202 0.78643,0 1.42307,0.35202 0.63663,0.34453 0.99614,0.95869 0.35952,0.60668 0.35952,1.37064 0,0.76396 -0.35952,1.37813 -0.35951,0.60667 -0.99614,0.95869 -0.63664,0.34454 -1.42307,0.34454 z m 0,-0.6666 q 0.57672,0 1.0336,-0.26214 0.46437,-0.26215 0.72651,-0.71902 0.26963,-0.46437 0.26963,-1.0336 0,-0.56922 -0.26963,-1.0261 -0.26214,-0.46437 -0.72651,-0.72652 -0.45688,-0.26214 -1.0336,-0.26214 -0.57671,0 -1.04857,0.26214 -0.46437,0.26215 -0.734,0.72652 -0.26215,0.45688 -0.26215,1.0261 0,0.56923 0.26215,1.0336 0.26963,0.45687 0.734,0.71902 0.47186,0.26214 1.04857,0.26214 z"
       style="font-style:normal;font-variant:normal;font-weight:500;font-stretch:normal;font-size:medium;line-height:1.25;font-family:Montserrat;-inkscape-font-specification:'Montserrat Medium';text-align:start;letter-spacing:0px;word-spacing:0px;text-anchor:start;fill:#0176b8;fill-opacity:1;stroke:none;stroke-width:0.46811348"
       id="path3030"
       inkscape:connector-curvature="0" />
    <path
       d="m 137.7191,226.94173 -1.13096,-1.61031 q -0.20972,0.015 -0.32955,0.015 h -1.29574 v 1.59533 h -0.74898 v -5.24287 h 2.04472 q 1.01861,0 1.60282,0.48683 0.5842,0.48684 0.5842,1.34068 0,0.60668 -0.29959,1.0336 -0.29959,0.42691 -0.85384,0.62165 l 1.24331,1.76011 z m -1.48298,-2.23197 q 0.71153,0 1.08602,-0.30708 0.37449,-0.30708 0.37449,-0.87631 0,-0.56923 -0.37449,-0.86882 -0.37449,-0.30708 -1.08602,-0.30708 h -1.27327 v 2.35929 z"
       style="font-style:normal;font-variant:normal;font-weight:500;font-stretch:normal;font-size:medium;line-height:1.25;font-family:Montserrat;-inkscape-font-specification:'Montserrat Medium';text-align:start;letter-spacing:0px;word-spacing:0px;text-anchor:start;fill:#0176b8;fill-opacity:1;stroke:none;stroke-width:0.46811348"
       id="path3032"
       inkscape:connector-curvature="0" />
    <path
       d="m 141.82773,227.00165 q -1.04857,0 -1.63278,-0.59919 -0.5842,-0.59919 -0.5842,-1.72266 v -2.98094 h 0.74898 v 2.95098 q 0,1.68521 1.47549,1.68521 0.71902,0 1.101,-0.41194 0.38199,-0.41943 0.38199,-1.27327 v -2.95098 h 0.72651 v 2.98094 q 0,1.13096 -0.58421,1.73015 -0.5842,0.5917 -1.63278,0.5917 z"
       style="font-style:normal;font-variant:normal;font-weight:500;font-stretch:normal;font-size:medium;line-height:1.25;font-family:Montserrat;-inkscape-font-specification:'Montserrat Medium';text-align:start;letter-spacing:0px;word-spacing:0px;text-anchor:start;fill:#0176b8;fill-opacity:1;stroke:none;stroke-width:0.46811348"
       id="path3034"
       inkscape:connector-curvature="0" />
    <path
       d="m 150.44114,226.94173 -0.007,-3.81981 -1.89493,3.18317 h -0.34453 l -1.89492,-3.1607 v 3.79734 h -0.71902 v -5.24287 h 0.61416 l 2.18703,3.68499 2.15706,-3.68499 h 0.61417 l 0.007,5.24287 z"
       style="font-style:normal;font-variant:normal;font-weight:500;font-stretch:normal;font-size:medium;line-height:1.25;font-family:Montserrat;-inkscape-font-specification:'Montserrat Medium';text-align:start;letter-spacing:0px;word-spacing:0px;text-anchor:start;fill:#0176b8;fill-opacity:1;stroke:none;stroke-width:0.46811348"
       id="path3036"
       inkscape:connector-curvature="0" />
    <path
       d="m 155.50133,222.35047 v 1.82751 h 2.62893 v 0.64413 h -2.62893 v 2.11962 h -0.74898 v -5.24287 h 3.69997 v 0.65161 z"
       style="font-style:normal;font-variant:normal;font-weight:500;font-stretch:normal;font-size:medium;line-height:1.25;font-family:Montserrat;-inkscape-font-specification:'Montserrat Medium';text-align:start;letter-spacing:0px;word-spacing:0px;text-anchor:start;fill:#0176b8;fill-opacity:1;stroke:none;stroke-width:0.46811348"
       id="path3038"
       inkscape:connector-curvature="0" />
    <path
       d="m 163.01186,226.94173 -1.13097,-1.61031 q -0.20971,0.015 -0.32955,0.015 h -1.29574 v 1.59533 h -0.74898 v -5.24287 h 2.04472 q 1.01862,0 1.60282,0.48683 0.58421,0.48684 0.58421,1.34068 0,0.60668 -0.29959,1.0336 -0.2996,0.42691 -0.85384,0.62165 l 1.24331,1.76011 z m -1.48299,-2.23197 q 0.71154,0 1.08603,-0.30708 0.37449,-0.30708 0.37449,-0.87631 0,-0.56923 -0.37449,-0.86882 -0.37449,-0.30708 -1.08603,-0.30708 h -1.27327 v 2.35929 z"
       style="font-style:normal;font-variant:normal;font-weight:500;font-stretch:normal;font-size:medium;line-height:1.25;font-family:Montserrat;-inkscape-font-specification:'Montserrat Medium';text-align:start;letter-spacing:0px;word-spacing:0px;text-anchor:start;fill:#0176b8;fill-opacity:1;stroke:none;stroke-width:0.46811348"
       id="path3040"
       inkscape:connector-curvature="0" />
    <path
       d="m 168.2889,225.63101 h -2.78621 l -0.57672,1.31072 h -0.77145 l 2.37427,-5.24287 h 0.74149 l 2.38177,5.24287 h -0.78644 z m -0.26214,-0.59919 -1.13097,-2.569 -1.13096,2.569 z"
       style="font-style:normal;font-variant:normal;font-weight:500;font-stretch:normal;font-size:medium;line-height:1.25;font-family:Montserrat;-inkscape-font-specification:'Montserrat Medium';text-align:start;letter-spacing:0px;word-spacing:0px;text-anchor:start;fill:#0176b8;fill-opacity:1;stroke:none;stroke-width:0.46811348"
       id="path3042"
       inkscape:connector-curvature="0" />
    <path
       d="m 172.48917,227.00165 q -1.04857,0 -1.63278,-0.59919 -0.58421,-0.59919 -0.58421,-1.72266 v -2.98094 h 0.74899 v 2.95098 q 0,1.68521 1.47549,1.68521 0.71902,0 1.101,-0.41194 0.38198,-0.41943 0.38198,-1.27327 v -2.95098 h 0.72652 v 2.98094 q 0,1.13096 -0.58421,1.73015 -0.58421,0.5917 -1.63278,0.5917 z"
       style="font-style:normal;font-variant:normal;font-weight:500;font-stretch:normal;font-size:medium;line-height:1.25;font-family:Montserrat;-inkscape-font-specification:'Montserrat Medium';text-align:start;letter-spacing:0px;word-spacing:0px;text-anchor:start;fill:#0176b8;fill-opacity:1;stroke:none;stroke-width:0.46811348"
       id="path3044"
       inkscape:connector-curvature="0" />
    <path
       d="m 180.04651,226.29011 v 0.65162 h -3.80483 v -5.24287 h 3.69997 v 0.65161 h -2.95098 v 1.61031 h 2.62892 v 0.63663 h -2.62892 v 1.6927 z"
       style="font-style:normal;font-variant:normal;font-weight:500;font-stretch:normal;font-size:medium;line-height:1.25;font-family:Montserrat;-inkscape-font-specification:'Montserrat Medium';text-align:start;letter-spacing:0px;word-spacing:0px;text-anchor:start;fill:#0176b8;fill-opacity:1;stroke:none;stroke-width:0.46811348"
       id="path3046"
       inkscape:connector-curvature="0" />
    <path
       d="m 185.76814,221.69886 v 5.24287 h -0.61417 l -3.14572,-3.90969 v 3.90969 h -0.74898 v -5.24287 h 0.61416 l 3.14573,3.90968 v -3.90968 z"
       style="font-style:normal;font-variant:normal;font-weight:500;font-stretch:normal;font-size:medium;line-height:1.25;font-family:Montserrat;-inkscape-font-specification:'Montserrat Medium';text-align:start;letter-spacing:0px;word-spacing:0px;text-anchor:start;fill:#0176b8;fill-opacity:1;stroke:none;stroke-width:0.46811348"
       id="path3048"
       inkscape:connector-curvature="0" />
    <path
       d="m 189.00398,224.57494 h 2.01476 v 0.62166 h -2.01476 z"
       style="font-style:normal;font-variant:normal;font-weight:500;font-stretch:normal;font-size:medium;line-height:1.25;font-family:Montserrat;-inkscape-font-specification:'Montserrat Medium';text-align:start;letter-spacing:0px;word-spacing:0px;text-anchor:start;fill:#0176b8;fill-opacity:1;stroke:none;stroke-width:0.46811348"
       id="path3050"
       inkscape:connector-curvature="0" />
    <path
       d="m 194.24942,221.69886 h 0.74898 v 5.24287 h -0.74898 z"
       style="font-style:normal;font-variant:normal;font-weight:500;font-stretch:normal;font-size:medium;line-height:1.25;font-family:Montserrat;-inkscape-font-specification:'Montserrat Medium';text-align:start;letter-spacing:0px;word-spacing:0px;text-anchor:start;fill:#0176b8;fill-opacity:1;stroke:none;stroke-width:0.46811348"
       id="path3052"
       inkscape:connector-curvature="0" />
    <path
       d="m 197.32435,222.35047 v 1.82751 h 2.62892 v 0.64413 h -2.62892 v 2.11962 h -0.74899 v -5.24287 h 3.69997 v 0.65161 z"
       style="font-style:normal;font-variant:normal;font-weight:500;font-stretch:normal;font-size:medium;line-height:1.25;font-family:Montserrat;-inkscape-font-specification:'Montserrat Medium';text-align:start;letter-spacing:0px;word-spacing:0px;text-anchor:start;fill:#0176b8;fill-opacity:1;stroke:none;stroke-width:0.46811348"
       id="path3054"
       inkscape:connector-curvature="0" />
    <path
       d="m 202.07862,222.35047 v 1.82751 h 2.62892 v 0.64413 h -2.62892 v 2.11962 h -0.74898 v -5.24287 h 3.69996 v 0.65161 z"
       style="font-style:normal;font-variant:normal;font-weight:500;font-stretch:normal;font-size:medium;line-height:1.25;font-family:Montserrat;-inkscape-font-specification:'Montserrat Medium';text-align:start;letter-spacing:0px;word-spacing:0px;text-anchor:start;fill:#0176b8;fill-opacity:1;stroke:none;stroke-width:0.46811348"
       id="path3056"
       inkscape:connector-curvature="0" />
  </g>
</svg>
