<?xml version="1.0" encoding="UTF-8" standalone="no"?>
<!-- Created with Inkscape (http://www.inkscape.org/) -->

<svg
   xmlns:dc="http://purl.org/dc/elements/1.1/"
   xmlns:cc="http://creativecommons.org/ns#"
   xmlns:rdf="http://www.w3.org/1999/02/22-rdf-syntax-ns#"
   xmlns:svg="http://www.w3.org/2000/svg"
   xmlns="http://www.w3.org/2000/svg"
   xmlns:sodipodi="http://sodipodi.sourceforge.net/DTD/sodipodi-0.dtd"
   xmlns:inkscape="http://www.inkscape.org/namespaces/inkscape"
   width="46.15723mm"
   height="46.15723mm"
   viewBox="0 0 46.15723 46.15723"
   version="1.1"
   id="svg821"
   sodipodi:docname="testico.svg"
   inkscape:version="0.92.3 (unknown)">
  <defs
     id="defs815" />
  <sodipodi:namedview
     id="base"
     pagecolor="#ffffff"
     bordercolor="#666666"
     borderopacity="1.0"
     inkscape:pageopacity="0.0"
     inkscape:pageshadow="2"
     inkscape:zoom="1.4"
     inkscape:cx="-3.6660566"
     inkscape:cy="-52.341594"
     inkscape:document-units="mm"
     inkscape:current-layer="layer1"
     showgrid="false"
     inkscape:window-width="1920"
     inkscape:window-height="1023"
     inkscape:window-x="0"
     inkscape:window-y="27"
     inkscape:window-maximized="1"
     fit-margin-top="0"
     fit-margin-left="0"
     fit-margin-right="0"
     fit-margin-bottom="0" />
  <metadata
     id="metadata818">
    <rdf:RDF>
      <cc:Work
         rdf:about="">
        <dc:format>image/svg+xml</dc:format>
        <dc:type
           rdf:resource="http://purl.org/dc/dcmitype/StillImage" />
        <dc:title></dc:title>
      </cc:Work>
    </rdf:RDF>
  </metadata>
  <g
     inkscape:label="Layer 1"
     inkscape:groupmode="layer"
     id="layer1"
     transform="translate(-110.58504,-91.170601)">
    <rect
       y="91.170601"
       x="110.58504"
       height="46.15723"
       width="46.15723"
       id="rect887"
       style="opacity:1;vector-effect:none;fill:#0176b8;fill-opacity:1;stroke:none;stroke-width:1;stroke-linecap:round;stroke-linejoin:round;stroke-miterlimit:4;stroke-dasharray:none;stroke-dashoffset:0;stroke-opacity:1"
       rx="0"
       ry="0" />
    <path
       inkscape:connector-curvature="0"
       id="path889"
       d="m 133.48698,98.345909 a 3.7630415,3.7630415 0 0 0 -3.446,2.256061 h -5.09472 c -1.69826,0 -3.06545,1.36719 -3.06545,3.06544 v 20.24463 c 0,1.69826 1.36719,3.06546 3.06545,3.06546 h 17.43479 c 1.69826,0 3.06545,-1.3672 3.06545,-3.06546 v -20.24463 c 0,-1.69825 -1.36719,-3.06545 -3.06545,-3.06544 h -5.4511 a 3.7630415,3.7630415 0 0 0 -3.44297,-2.256061 z m 0,2.354351 a 1.4087176,1.4087176 0 0 1 1.40876,1.40875 1.4087176,1.4087176 0 0 1 -1.40876,1.40877 1.4087176,1.4087176 0 0 1 -1.40877,-1.40877 1.4087176,1.4087176 0 0 1 1.40877,-1.40875 z m -8.36528,2.58386 h 1.97518 c -5.3e-4,0.0123 -0.002,0.0243 -0.002,0.0368 v 3.13601 c 0,0.45156 0.3636,0.81517 0.81518,0.81517 h 11.44307 c 0.45157,0 0.81517,-0.36361 0.81517,-0.81517 v -3.13601 c 0,-0.0124 -0.002,-0.0245 -0.002,-0.0368 h 2.03915 c 0.37291,0 0.67322,0.30032 0.67322,0.67322 v 19.66477 c 0,0.3729 -0.30031,0.67322 -0.67322,0.67322 h -17.08392 c -0.3729,0 -0.67321,-0.30032 -0.67321,-0.67322 v -19.66477 c 0,-0.3729 0.30031,-0.67322 0.67321,-0.67322 z m 15.17407,6.607 -1.39778,1.39257 -1.39778,1.39257 -0.70617,-0.69519 -0.70589,-0.69546 -0.66361,0.66388 -0.66388,0.66361 1.40134,1.40657 1.40136,1.40684 2.07566,-2.07237 c 1.14161,-1.1397 2.06926,-2.1044 2.0614,-2.14403 -0.008,-0.0396 -0.32715,-0.35258 -0.70946,-0.69546 z m -13.20081,1.45764 v 1.26516 1.26517 h 3.23321 3.23322 v -1.26517 -1.26516 h -3.23322 z m 13.35292,4.57773 -0.9519,0.94475 -0.9519,0.94449 -0.90577,-0.91401 c -0.49823,-0.50271 -0.93927,-0.91202 -0.98018,-0.90989 -0.0409,0.002 -0.38413,0.2916 -0.76272,0.64329 l -0.68832,0.63946 0.96562,0.97331 0.96563,0.97303 -0.94421,0.95163 -0.94421,0.95162 0.66499,0.66498 c 0.36576,0.36577 0.69938,0.66498 0.7413,0.66498 0.0419,0 0.48387,-0.4113 0.9821,-0.914 l 0.90577,-0.91401 0.9519,0.94476 0.9519,0.94448 0.70452,-0.69381 0.70452,-0.69409 -0.94586,-0.95327 -0.94613,-0.95327 0.94613,-0.95327 0.94586,-0.95327 -0.70452,-0.69381 z m -13.35292,2.02927 v 1.26516 1.26517 h 3.23321 3.23322 v -1.26517 -1.26516 h -3.23322 z"
       style="fill:#ffffff;stroke-width:0.14057437" />
  </g>
</svg>
